<svg width="20" height="21" viewBox="0 0 20 21" fill="none" xmlns="http://www.w3.org/2000/svg">
<path d="M16.4781 8.7417V8.74169H16.475H13.1083C12.4831 8.74169 12.1731 8.62713 12.0137 8.48601C11.8699 8.35882 11.75 8.12004 11.75 7.59169V3.81669C11.75 3.29354 11.8695 3.05361 12.0144 2.92484C12.1744 2.78267 12.4849 2.66669 13.1083 2.66669H16.475C17.0985 2.66669 17.4089 2.78267 17.5689 2.92484C17.7139 3.05361 17.8333 3.29354 17.8333 3.81669V7.60002C17.8333 8.12354 17.7137 8.3627 17.5697 8.49018C17.4107 8.63083 17.1013 8.74562 16.4781 8.7417Z" fill="white" stroke="white"/>
<path d="M17.8333 13.6083V16.975C17.8333 17.5874 17.7071 17.8879 17.5475 18.0475C17.3879 18.2071 17.0874 18.3333 16.475 18.3333H13.1083C12.4959 18.3333 12.1955 18.2071 12.0358 18.0475C11.8762 17.8879 11.75 17.5874 11.75 16.975V13.6083C11.75 12.9959 11.8762 12.6955 12.0358 12.5358C12.1955 12.3762 12.4959 12.25 13.1083 12.25H16.475C17.0874 12.25 17.3879 12.3762 17.5475 12.5358C17.7071 12.6955 17.8333 12.9959 17.8333 13.6083Z" fill="white" stroke="white"/>
<path d="M6.89465 8.7417V8.74169H6.8915H3.52484C2.89959 8.74169 2.58961 8.62713 2.43017 8.48601C2.28645 8.35882 2.1665 8.12004 2.1665 7.59169V3.81669C2.1665 3.29354 2.28596 3.05361 2.4309 2.92484C2.59091 2.78267 2.90137 2.66669 3.52484 2.66669H6.8915C7.51497 2.66669 7.82543 2.78267 7.98545 2.92484C8.13038 3.05361 8.24984 3.29354 8.24984 3.81669V7.60002C8.24984 8.12354 8.13022 8.3627 7.98617 8.49018C7.82725 8.63083 7.51784 8.74562 6.89465 8.7417Z" fill="white" stroke="white"/>
<path d="M8.24984 13.6083V16.975C8.24984 17.5874 8.12363 17.8879 7.96399 18.0475C7.80436 18.2071 7.50393 18.3333 6.8915 18.3333H3.52484C2.91242 18.3333 2.61199 18.2071 2.45235 18.0475C2.29271 17.8879 2.1665 17.5874 2.1665 16.975V13.6083C2.1665 12.9959 2.29271 12.6955 2.45235 12.5358C2.61199 12.3762 2.91242 12.25 3.52484 12.25H6.8915C7.50393 12.25 7.80436 12.3762 7.96399 12.5358C8.12363 12.6955 8.24984 12.9959 8.24984 13.6083Z" fill="white" stroke="white"/>
</svg>
    