<svg width="26" height="26" viewBox="0 0 26 26" fill="none" xmlns="http://www.w3.org/2000/svg">
<path fill-rule="evenodd" clip-rule="evenodd" d="M5.00008 7.75C4.30972 7.75 3.75008 8.30964 3.75008 9V19C3.75008 19.6904 4.30972 20.25 5.00008 20.25H19.0001C19.6904 20.25 20.2501 19.6904 20.2501 19V9C20.2501 8.30964 19.6904 7.75 19.0001 7.75H5.00008ZM2.25008 9C2.25008 7.48122 3.4813 6.25 5.00008 6.25H19.0001C20.5189 6.25 21.7501 7.48122 21.7501 9V19C21.7501 20.5188 20.5189 21.75 19.0001 21.75H5.00008C3.4813 21.75 2.25008 20.5188 2.25008 19V9Z" fill="#111827"/>
<path fill-rule="evenodd" clip-rule="evenodd" d="M2.37604 8.58397C2.60581 8.23933 3.07146 8.1462 3.4161 8.37596L12.0001 14.0986L20.5841 8.37596C20.9287 8.1462 21.3944 8.23933 21.6241 8.58397C21.8539 8.92862 21.7608 9.39427 21.4161 9.62404L12.4161 15.624C12.1642 15.792 11.836 15.792 11.5841 15.624L2.58405 9.62404C2.23941 9.39427 2.14628 8.92862 2.37604 8.58397Z" fill="#111827"/>
<rect x="15" y="1" width="10" height="10" rx="5" fill="#E03137"/>
<rect x="15" y="1" width="10" height="10" rx="5" stroke="white" stroke-width="2"/>
</svg>
