<svg width="26" height="26" viewBox="0 0 26 26" fill="none" xmlns="http://www.w3.org/2000/svg">
<circle cx="13" cy="13" r="13" fill="#E5E5E5"/>
<path fill-rule="evenodd" clip-rule="evenodd" d="M11.6937 8.52858C11.9541 8.78892 11.9541 9.21103 11.6937 9.47138L8.16514 13L11.6937 16.5286C11.9541 16.7889 11.9541 17.211 11.6937 17.4714C11.4334 17.7317 11.0113 17.7317 10.7509 17.4714L6.75093 13.4714C6.49058 13.211 6.49058 12.7889 6.75093 12.5286L10.7509 8.52858C11.0113 8.26823 11.4334 8.26823 11.6937 8.52858Z" fill="#657081"/>
<path fill-rule="evenodd" clip-rule="evenodd" d="M17.6937 8.52858C17.9541 8.78892 17.9541 9.21103 17.6937 9.47138L14.1651 13L17.6937 16.5286C17.9541 16.7889 17.9541 17.211 17.6937 17.4714C17.4334 17.7317 17.0113 17.7317 16.7509 17.4714L12.7509 13.4714C12.4906 13.211 12.4906 12.7889 12.7509 12.5286L16.7509 8.52858C17.0113 8.26823 17.4334 8.26823 17.6937 8.52858Z" fill="#657081"/>
</svg>
