<svg width="26" height="26" viewBox="0 0 26 26" fill="none" xmlns="http://www.w3.org/2000/svg">
<path d="M12.0199 22.53C9.68987 22.53 7.35987 22.16 5.14987 21.42C4.30987 21.13 3.66987 20.54 3.38987 19.77C3.09987 19 3.19987 18.15 3.65987 17.39L4.80987 15.48C5.04987 15.08 5.26987 14.28 5.26987 13.81V10.92C5.26987 7.19998 8.29987 4.16998 12.0199 4.16998C15.7399 4.16998 18.7699 7.19998 18.7699 10.92V13.81C18.7699 14.27 18.9899 15.08 19.2299 15.49L20.3699 17.39C20.7999 18.11 20.8799 18.98 20.5899 19.77C20.2999 20.56 19.6699 21.16 18.8799 21.42C16.6799 22.16 14.3499 22.53 12.0199 22.53ZM12.0199 5.66998C9.12987 5.66998 6.76987 8.01998 6.76987 10.92V13.81C6.76987 14.54 6.46987 15.62 6.09987 16.25L4.94987 18.16C4.72987 18.53 4.66987 18.92 4.79987 19.25C4.91987 19.59 5.21987 19.85 5.62987 19.99C9.80987 21.39 14.2399 21.39 18.4199 19.99C18.7799 19.87 19.0599 19.6 19.1899 19.24C19.3199 18.88 19.2899 18.49 19.0899 18.16L17.9399 16.25C17.5599 15.6 17.2699 14.53 17.2699 13.8V10.92C17.2699 8.01998 14.9199 5.66998 12.0199 5.66998Z" fill="#21252B"/>
<path d="M13.8801 5.93999C13.8101 5.93999 13.7401 5.92999 13.6701 5.90999C13.3801 5.82999 13.1001 5.76999 12.8301 5.72999C11.9801 5.61999 11.1601 5.67999 10.3901 5.90999C10.1101 5.99999 9.81011 5.90999 9.62011 5.69999C9.43011 5.48999 9.37011 5.18999 9.48011 4.91999C9.89011 3.86999 10.8901 3.17999 12.0301 3.17999C13.1701 3.17999 14.1701 3.85999 14.5801 4.91999C14.6801 5.18999 14.6301 5.48999 14.4401 5.69999C14.2901 5.85999 14.0801 5.93999 13.8801 5.93999Z" fill="#21252B"/>
<path d="M12.02 24.81C11.03 24.81 10.07 24.41 9.37002 23.71C8.67002 23.01 8.27002 22.05 8.27002 21.06H9.77002C9.77002 21.65 10.01 22.23 10.43 22.65C10.85 23.07 11.43 23.31 12.02 23.31C13.26 23.31 14.27 22.3 14.27 21.06H15.77C15.77 23.13 14.09 24.81 12.02 24.81Z" fill="#21252B"/>
<rect x="15" y="1" width="10" height="10" rx="5" fill="#E03137"/>
<rect x="15" y="1" width="10" height="10" rx="5" stroke="white" stroke-width="2"/>
</svg>
